<svg width="26" height="26" viewBox="0 0 26 26" fill="none" xmlns="http://www.w3.org/2000/svg">
<path fill-rule="evenodd" clip-rule="evenodd" d="M6.5 0C4.77609 0 3.12279 0.684819 1.90381 1.90381C0.684819 3.12279 0 4.77609 0 6.5V19.5C0 21.2239 0.684819 22.8772 1.90381 24.0962C3.12279 25.3152 4.77609 26 6.5 26H19.5C21.2239 26 22.8772 25.3152 24.0962 24.0962C25.3152 22.8772 26 21.2239 26 19.5V6.5C26 4.77609 25.3152 3.12279 24.0962 1.90381C22.8772 0.684819 21.2239 0 19.5 0H6.5ZM17.849 11.2892C17.9658 11.1646 18.0569 11.0182 18.117 10.8583C18.1772 10.6985 18.2054 10.5284 18.1998 10.3577C18.1943 10.187 18.1551 10.0191 18.0847 9.86352C18.0142 9.70795 17.9138 9.56777 17.7892 9.451C17.6646 9.33423 17.5182 9.24315 17.3583 9.18296C17.1985 9.12276 17.0284 9.09464 16.8577 9.1002C16.687 9.10575 16.5191 9.14487 16.3635 9.21532C16.2079 9.28577 16.0678 9.38618 15.951 9.5108L11.9431 13.7878L9.9632 12.0289C9.7038 11.8133 9.37073 11.7069 9.03435 11.7323C8.69797 11.7576 8.38463 11.9128 8.16052 12.1649C7.93641 12.417 7.81908 12.7464 7.83331 13.0834C7.84754 13.4205 7.99223 13.7388 8.2368 13.9711L11.1618 16.5711C11.4149 16.7959 11.7457 16.9131 12.0839 16.8978C12.4221 16.8826 12.7409 16.7359 12.9727 16.4892L17.8477 11.2892H17.849Z" fill="#25BC18"/>
</svg>
